<svg xmlns="http://www.w3.org/2000/svg"><g fill="#ffffff"><g fill="#ffffff" transform="translate(0, 0)"><path d="M0 0.96L5.16 0.96Q7.69 0.96 9.37 1.97Q11.04 2.99 11.88 4.78Q12.72 6.56 12.72 8.87Q12.72 11.18 11.88 12.97Q11.04 14.76 9.37 15.78Q7.69 16.80 5.16 16.80L0 16.80L0 0.96M4.18 4.64L4.18 13.12L4.79 13.12Q5.94 13.12 6.71 12.56Q7.49 12.00 7.89 11.04Q8.29 10.08 8.29 8.89Q8.29 7.69 7.90 6.73Q7.50 5.77 6.72 5.21Q5.94 4.64 4.79 4.64L4.18 4.64ZM22.20 16.80L22.20 15.32Q22.08 15.55 21.66 15.98Q21.24 16.40 20.55 16.75Q19.86 17.09 18.94 17.09Q17.47 17.09 16.40 16.37Q15.34 15.65 14.75 14.46Q14.17 13.27 14.17 11.88Q14.17 10.49 14.75 9.30Q15.34 8.11 16.40 7.39Q17.47 6.66 18.94 6.66Q19.81 6.66 20.47 6.92Q21.12 7.19 21.55 7.55Q21.97 7.91 22.15 8.23L22.15 6.95L26.38 6.95L26.38 16.80L22.20 16.80M18.34 11.88Q18.34 12.41 18.59 12.85Q18.84 13.28 19.27 13.54Q19.70 13.79 20.26 13.79Q20.81 13.79 21.23 13.54Q21.66 13.28 21.91 12.85Q22.15 12.41 22.15 11.88Q22.15 11.35 21.91 10.91Q21.66 10.48 21.23 10.22Q20.81 9.96 20.26 9.96Q19.70 9.96 19.27 10.22Q18.84 10.48 18.59 10.91Q18.34 11.35 18.34 11.88ZM32.34 16.80L28.09 16.80L28.09 6.95L32.34 6.95L32.34 8.40L32.28 8.40Q32.40 8.14 32.77 7.73Q33.13 7.32 33.80 6.99Q34.46 6.66 35.46 6.66Q36.13 6.66 36.73 6.88Q37.33 7.09 37.61 7.30L35.98 10.74Q35.82 10.51 35.39 10.28Q34.96 10.04 34.32 10.04Q33.60 10.04 33.16 10.36Q32.72 10.68 32.53 11.15Q32.34 11.62 32.34 12.05L32.34 16.80ZM38.54 16.80L38.54 6.95L42.78 6.95L42.78 16.80L38.54 16.80M40.72 5.44Q39.74 5.44 39.07 4.75Q38.39 4.07 38.39 3.12Q38.39 2.17 39.07 1.48Q39.74 0.78 40.72 0.78Q41.35 0.78 41.88 1.10Q42.41 1.42 42.73 1.94Q43.06 2.47 43.06 3.12Q43.06 4.07 42.37 4.75Q41.68 5.44 40.72 5.44ZM52.57 16.80L52.57 15.32Q52.45 15.55 52.03 15.98Q51.61 16.40 50.92 16.75Q50.23 17.09 49.31 17.09Q47.84 17.09 46.78 16.37Q45.71 15.65 45.13 14.46Q44.54 13.27 44.54 11.88Q44.54 10.49 45.13 9.30Q45.71 8.11 46.78 7.39Q47.84 6.66 49.31 6.66Q50.18 6.66 50.84 6.92Q51.49 7.19 51.92 7.55Q52.34 7.91 52.52 8.23L52.52 6.95L56.75 6.95L56.75 16.80L52.57 16.80M48.71 11.88Q48.71 12.41 48.96 12.85Q49.21 13.28 49.64 13.54Q50.08 13.79 50.63 13.79Q51.18 13.79 51.61 13.54Q52.03 13.28 52.28 12.85Q52.52 12.41 52.52 11.88Q52.52 11.35 52.28 10.91Q52.03 10.48 51.61 10.22Q51.18 9.96 50.63 9.96Q50.08 9.96 49.64 10.22Q49.21 10.48 48.96 10.91Q48.71 11.35 48.71 11.88ZM73.07 11.90Q73.07 13.54 72.41 14.70Q71.76 15.86 70.58 16.48Q69.41 17.09 67.85 17.09Q66.77 17.09 65.94 16.82Q65.11 16.55 64.61 16.23Q64.10 15.91 64.00 15.77L65.51 12.13Q65.66 12.34 65.92 12.55Q66.17 12.76 66.50 12.91Q66.84 13.06 67.21 13.06Q67.61 13.06 67.99 12.90Q68.38 12.74 68.63 12.31Q68.88 11.87 68.88 11.04L68.88 0.96L73.07 0.96L73.07 11.90ZM82.97 16.80L82.97 15.32Q82.85 15.55 82.43 15.98Q82.01 16.40 81.32 16.75Q80.63 17.09 79.70 17.09Q78.24 17.09 77.17 16.37Q76.10 15.65 75.52 14.46Q74.94 13.27 74.94 11.88Q74.94 10.49 75.52 9.30Q76.10 8.11 77.17 7.39Q78.24 6.66 79.70 6.66Q80.58 6.66 81.23 6.92Q81.89 7.19 82.31 7.55Q82.74 7.91 82.92 8.23L82.92 6.95L87.14 6.95L87.14 16.80L82.97 16.80M79.10 11.88Q79.10 12.41 79.36 12.85Q79.61 13.28 80.04 13.54Q80.47 13.79 81.02 13.79Q81.58 13.79 82.00 13.54Q82.43 13.28 82.67 12.85Q82.92 12.41 82.92 11.88Q82.92 11.35 82.67 10.91Q82.43 10.48 82.00 10.22Q81.58 9.96 81.02 9.96Q80.47 9.96 80.04 10.22Q79.61 10.48 79.36 10.91Q79.10 11.35 79.10 11.88ZM96.54 6.66Q97.61 6.66 98.62 7.08Q99.62 7.50 100.28 8.42Q100.93 9.35 100.93 10.84L100.93 16.80L96.67 16.80L96.67 11.52Q96.67 10.62 96.24 10.13Q95.81 9.65 95.09 9.65Q94.62 9.65 94.21 9.89Q93.80 10.13 93.56 10.56Q93.31 10.99 93.31 11.57L93.31 16.80L89.06 16.80L89.06 6.95L93.31 6.95L93.31 8.28Q93.47 7.88 93.92 7.52Q94.38 7.15 95.06 6.91Q95.75 6.66 96.54 6.66ZM109.81 6.95L114.55 6.95L110.06 11.65L115.08 16.80L110.22 16.80L106.72 13.00L106.72 16.80L102.47 16.80L102.47 0.29L106.72 0.29L106.72 10.19L109.81 6.95ZM120.59 17.09Q118.93 17.09 117.65 16.43Q116.36 15.77 115.63 14.60Q114.90 13.43 114.90 11.90Q114.90 10.38 115.63 9.20Q116.36 8.02 117.65 7.34Q118.93 6.66 120.59 6.66Q122.23 6.66 123.50 7.34Q124.76 8.02 125.48 9.20Q126.19 10.38 126.19 11.90Q126.19 13.43 125.48 14.60Q124.76 15.77 123.50 16.43Q122.23 17.09 120.59 17.09M120.59 13.62Q121.08 13.62 121.44 13.41Q121.80 13.20 121.99 12.80Q122.18 12.41 122.18 11.88Q122.18 11.36 121.99 10.97Q121.80 10.57 121.44 10.35Q121.08 10.13 120.59 10.13Q120.08 10.13 119.72 10.35Q119.36 10.57 119.16 10.97Q118.96 11.36 118.96 11.88Q118.96 12.41 119.16 12.80Q119.36 13.20 119.72 13.41Q120.08 13.62 120.59 13.62ZM127.06 6.95L131.60 6.95L133.66 12.96L135.72 6.95L140.24 6.95L136.15 16.80L131.17 16.80L127.06 6.95ZM146.82 13.15L149.23 6.95L153.38 6.95L146.56 21.79L142.32 21.79L144.61 16.80L140.48 6.95L144.70 6.95L146.82 13.15M145.30 5.95L144.10 4.30L148.09 0.79L150.04 3.24L145.30 5.95ZM159.97 13.79Q160.55 13.79 160.94 13.58Q161.34 13.37 161.50 13.21L163.42 16.07Q163.20 16.25 162.73 16.49Q162.25 16.73 161.55 16.91Q160.85 17.09 159.95 17.09Q158.11 17.09 156.79 16.43Q155.46 15.77 154.75 14.59Q154.03 13.42 154.03 11.87Q154.03 10.31 154.75 9.14Q155.46 7.97 156.79 7.31Q158.11 6.66 159.95 6.66Q160.82 6.66 161.53 6.83Q162.24 7.01 162.74 7.24Q163.24 7.48 163.45 7.66L161.48 10.52Q161.41 10.45 161.21 10.31Q161.00 10.18 160.70 10.07Q160.39 9.96 159.97 9.96Q159.44 9.96 159.02 10.22Q158.59 10.49 158.34 10.91Q158.09 11.34 158.09 11.87Q158.09 12.40 158.34 12.83Q158.59 13.26 159.02 13.52Q159.44 13.79 159.97 13.79ZM172.03 6.66Q173.10 6.66 174.10 7.08Q175.10 7.50 175.76 8.42Q176.41 9.35 176.41 10.84L176.41 16.80L172.16 16.80L172.16 11.52Q172.16 10.62 171.77 10.13Q171.38 9.65 170.66 9.65Q170.20 9.65 169.76 9.89Q169.33 10.13 169.07 10.56Q168.80 10.99 168.80 11.57L168.80 16.80L164.56 16.80L164.56 0.29L168.80 0.29L168.80 8.28Q168.95 7.88 169.41 7.52Q169.87 7.15 170.56 6.91Q171.24 6.66 172.03 6.66Z"/></g><g fill="#ffffff" transform="translate(0, 29.28)"><path d="M0 0.96L6.82 0.96Q8.23 0.96 9.32 1.55Q10.42 2.15 11.05 3.25Q11.68 4.36 11.68 5.88Q11.68 7.39 11.16 8.34Q10.64 9.29 9.92 9.76Q9.20 10.22 8.60 10.34L12.42 16.80L7.73 16.80L4.39 10.67L4.19 10.67L4.19 16.80L0 16.80L0 0.96M4.19 7.81L5.32 7.81Q6.10 7.81 6.74 7.44Q7.38 7.07 7.38 6.01Q7.38 4.97 6.75 4.60Q6.12 4.22 5.35 4.22L4.19 4.22L4.19 7.81ZM18.20 12.73Q18.25 13.13 18.52 13.42Q18.79 13.72 19.24 13.88Q19.69 14.04 20.30 14.04Q20.90 14.04 21.43 13.95Q21.96 13.86 22.37 13.70Q22.79 13.55 23.03 13.36L24.60 16.00Q24.34 16.22 23.81 16.48Q23.28 16.73 22.36 16.91Q21.44 17.09 20.02 17.09Q18.36 17.09 17.04 16.50Q15.72 15.91 14.95 14.73Q14.18 13.55 14.18 11.77Q14.18 10.33 14.83 9.17Q15.48 8.02 16.70 7.34Q17.93 6.66 19.67 6.66Q21.34 6.66 22.56 7.24Q23.78 7.82 24.44 9.00Q25.10 10.18 25.10 11.98Q25.10 12.07 25.10 12.36Q25.09 12.65 25.07 12.73L18.20 12.73M21.11 10.81Q21.10 10.42 20.93 10.10Q20.77 9.79 20.47 9.61Q20.17 9.43 19.74 9.43Q19.32 9.43 19.00 9.60Q18.67 9.77 18.49 10.07Q18.31 10.38 18.29 10.81L21.11 10.81ZM34.37 16.80L34.37 15.32Q34.25 15.55 33.83 15.98Q33.41 16.40 32.72 16.75Q32.03 17.09 31.10 17.09Q29.64 17.09 28.57 16.37Q27.50 15.65 26.92 14.46Q26.34 13.27 26.34 11.88Q26.34 10.49 26.92 9.30Q27.50 8.11 28.57 7.39Q29.64 6.66 31.10 6.66Q31.98 6.66 32.63 6.92Q33.29 7.19 33.71 7.55Q34.14 7.91 34.32 8.23L34.32 6.95L38.54 6.95L38.54 16.80L34.37 16.80M30.50 11.88Q30.50 12.41 30.76 12.85Q31.01 13.28 31.44 13.54Q31.87 13.79 32.42 13.79Q32.98 13.79 33.40 13.54Q33.83 13.28 34.07 12.85Q34.32 12.41 34.32 11.88Q34.32 11.35 34.07 10.91Q33.83 10.48 33.40 10.22Q32.98 9.96 32.42 9.96Q31.87 9.96 31.44 10.22Q31.01 10.48 30.76 10.91Q30.50 11.35 30.50 11.88ZM44.89 16.80L40.63 16.80L40.63 0.29L44.89 0.29L44.89 16.80ZM47.08 16.80L47.08 6.95L51.31 6.95L51.31 16.80L47.08 16.80M49.25 5.44Q48.28 5.44 47.60 4.75Q46.92 4.07 46.92 3.12Q46.92 2.17 47.60 1.48Q48.28 0.78 49.25 0.78Q49.88 0.78 50.41 1.10Q50.94 1.42 51.26 1.94Q51.59 2.47 51.59 3.12Q51.59 4.07 50.90 4.75Q50.21 5.44 49.25 5.44ZM52.73 6.95L54.31 6.95L54.31 2.90L58.51 2.90L58.51 6.95L60.60 6.95L60.60 10.42L58.51 10.42L58.51 12.34Q58.51 12.85 58.65 13.22Q58.79 13.58 59.24 13.58Q59.52 13.58 59.74 13.46Q59.95 13.33 60 13.28L61.42 16.28Q61.32 16.36 60.83 16.55Q60.35 16.75 59.61 16.92Q58.87 17.09 57.97 17.09Q56.38 17.09 55.34 16.21Q54.31 15.32 54.31 13.49L54.31 10.42L52.73 10.42L52.73 6.95ZM67.88 13.15L70.30 6.95L74.45 6.95L67.62 21.79L63.38 21.79L65.68 16.80L61.55 6.95L65.76 6.95L67.88 13.15Z"/></g><g fill="#ffffff" transform="translate(0, 58.56)"><path d=""/></g></g></svg>